<?xml version="1.0" encoding="UTF-8" standalone="no"?>
<svg
   xmlns:dc="http://purl.org/dc/elements/1.1/"
   xmlns:cc="http://creativecommons.org/ns#"
   xmlns:rdf="http://www.w3.org/1999/02/22-rdf-syntax-ns#"
   xmlns:svg="http://www.w3.org/2000/svg"
   xmlns="http://www.w3.org/2000/svg"
   viewBox="0 0 816 1056"
   height="1056"
   width="816"
   xml:space="preserve"
   id="svg2"
   version="1.1"><metadata
     id="metadata8"><rdf:RDF><cc:Work
         rdf:about=""><dc:format>image/svg+xml</dc:format><dc:type
           rdf:resource="http://purl.org/dc/dcmitype/StillImage" /></cc:Work></rdf:RDF></metadata><defs
     id="defs6" /><g
     transform="matrix(1.3333333,0,0,-1.3333333,0,1056)"
     id="g10"><text
       id="text22"
       style="font-variant:normal;font-weight:normal;font-stretch:normal;font-size:12px;font-family:'Times New Roman';-inkscape-font-specification:TimesNewRomanPSMT;writing-mode:lr-tb;fill:#000000;fill-opacity:1;fill-rule:nonzero;stroke:none"
       transform="matrix(1,0,0,-1,90,709.2)"><tspan
         id="tspan12"
         y="0"
         x="0 6.7199998 12.72 18 21.360001 26.639999 32.639999 35.639999 41.639999 50.279999 53.279999 59.880001 65.879997 71.879997 75.239998 78.239998 84.959999 90.239998 99.599998 102.96 106.44 112.32">Sketch 3D Font Family </tspan><tspan
         id="tspan14"
         y="13.8"
         x="0 8.1599998 13.92 16.92 25.559999 30.84 34.200001 40.200001 43.560001 49.560001 55.560001 58.560001 67.199997 70.559998 73.919998 79.199997 85.199997 88.199997 97.32 100.32 104.4 109.68 115.68 121.8 127.56 131.64 135.12 141 147 150.36 154.32001 157.44 164.03999 168.12 173.39999 178.67999 181.67999 185.64 191.75999 195.72 198.72 204.72 210 213.96001 218.64 224.64 230.75999 236.03999 239.39999 242.39999 248.39999 253.08 258.35999">By Galdino Otten © (copyright) Free for personal use </tspan><tspan
         id="tspan16"
         y="27.6"
         x="0 8.04 14.04 20.040001 23.4 28.68 33.959999 37.32 40.68 43.68 51 60.360001 65.639999 69 72.360001 75.360001 81.239998 86.519997 89.879997 95.879997 99.239998 105.24 111.24 117.24 120.6 123.96 129.24001 135.24001 146.28 155.64 160.32001 166.32001 169.32001 174.60001 180.60001 189.96001">Contact: Email galdinootten@msn.com </tspan><tspan
         id="tspan18"
         y="41.400002"
         x="0 7.9200001 11.28 17.280001 23.16 26.52">Blog: </tspan><tspan
         id="tspan20"
         y="55.200001"
         x="0 6 9.3599997 12.72 18.719999 22.08 25.440001 28.799999 34.799999 40.799999 44.279999 49.919998 53.279999 56.639999 60 66 70.68 74.040001 78 83.279999 86.639999 90 96 102 105 111 114.36 120.36 126.24 130.92 136.92 142.92 146.28 149.28 154.56 160.56 169.92">http://onlyillustration.blogspot.com/</tspan></text>
<path
       id="path24"
       style="fill:#000000;fill-opacity:1;fill-rule:nonzero;stroke:none"
       d="m 90,652.08 h 173.4 v 0.6 H 90 Z" /><text
       id="text28"
       style="font-variant:normal;font-weight:normal;font-stretch:normal;font-size:12px;font-family:'Times New Roman';-inkscape-font-specification:TimesNewRomanPSMT;writing-mode:lr-tb;fill:#000000;fill-opacity:1;fill-rule:nonzero;stroke:none"
       transform="matrix(1,0,0,-1,90,640.2)"><tspan
         id="tspan26"
         y="0"
         x="0 6 9.3599997 12.72 18.719999 22.08 25.440001 28.799999 34.68 39.959999 43.32 49.32 52.68 58.68 64.68 70.68 74.040001 77.400002 82.68 88.68 94.68 97.919998 100.92 106.92 110.28 116.28 122.28 126.96 132.96001 138.96001 142.32001 145.32001 150.60001 156.60001 165.96001">http://galdinoottenbr.blogspot.com/</tspan></text>
<path
       id="path30"
       style="fill:#000000;fill-opacity:1;fill-rule:nonzero;stroke:none"
       d="m 90,638.28 h 169.32 v 0.6 H 90 Z" /><text
       id="text34"
       style="font-variant:normal;font-weight:normal;font-stretch:normal;font-size:12px;font-family:'Times New Roman';-inkscape-font-specification:TimesNewRomanPSMT;writing-mode:lr-tb;fill:#000000;fill-opacity:1;fill-rule:nonzero;stroke:none"
       transform="matrix(1,0,0,-1,90,626.4)"><tspan
         id="tspan32"
         y="0"
         x="0 6 9.3599997 12.72 18.719999 22.08 25.440001 28.799999 34.68 39.959999 43.32 49.32 52.68 58.68 64.68 70.68 74.040001 77.400002 82.68 88.68 91.68 96.959999 102.96">http://galdinootten.com</tspan></text>
<path
       id="path36"
       style="fill:#000000;fill-opacity:1;fill-rule:nonzero;stroke:none"
       d="m 90,624.48 h 112.32 v 0.599 H 90 Z" /><text
       id="text104"
       style="font-variant:normal;font-weight:normal;font-stretch:normal;font-size:12px;font-family:'Times New Roman';-inkscape-font-specification:TimesNewRomanPSMT;writing-mode:lr-tb;fill:#000000;fill-opacity:1;fill-rule:nonzero;stroke:none"
       transform="matrix(1,0,0,-1,90,585)"><tspan
         id="tspan38"
         y="0"
         x="0 6.48 11.76 15.72 25.08 29.76 32.759998 38.759998 42.720001 45.720001 54.360001 59.040001 64.32 67.68 75 81 87 90 98.639999 103.44 108.72 112.68 115.8 123 126.36 131.0388 136.3188 142.4388 147.7188 152.99879 155.3988 164.1588 170.0388 173.99879 179.3988 184.6788 194.0388 199.3188 205.3188 208.8">Terms of Use/End User Lisence Agreement </tspan><tspan
         id="tspan40"
         y="27.6"
         x="0 8.6400003 14.64 20.639999 26.639999 29.639999 35.639999 41.639999 50.279999 56.279999 59.639999 65.639999 70.919998 76.919998 80.279999 86.279999 92.160004 95.160004 98.519997 104.52 107.88 112.56 115.56 119.64 125.64 131.64 135 138 141.36 147.36 152.64 155.64 161.64 166.32001 171.60001 175.56 178.56 184.56 190.56 196.56 202.56 208.56 211.56 214.92 220.92 223.92 229.2 235.2 238.67999 244.67999 249.96001">Upon downloading this font the user bound to abide </tspan><tspan
         id="tspan42"
         y="41.400002"
         x="0 3.3599999 9.3599997 14.64 17.639999 24.24 28.200001 33.599998 38.880001 42 48.599998 54.599998 60.599998 63.959999 66.720001 73.199997 78.480003 82.440002 91.800003 96.480003 99.480003 105.48 109.44 112.56 121.32 126 131.28 134.64 141.24001 145.2 150.60001 155.88 158.88 165.48 171.48 177.48 180.84 183.84 191.16 197.16 203.16 206.28 214.92 219.60001 224.88 228.84">the Free Font Terms of Use/Free Font End User </tspan><tspan
         id="tspan44"
         y="55.200001"
         x="0 7.1999998 10.56 15.96 21.24 27.24 31.92 37.200001 39.599998 48.360001 54.240002 58.200001 63.599998 68.879997 78.239998 83.519997 89.519997 92.879997 95.879997 99.839996 107.04 115.8 124.44 127.8 135.12 143.88 151.08 159.72 163.67999 166.67999 172.67999 178.08 182.03999 185.39999 191.39999 196.67999 202.67999 205.67999 211.67999 216.96001 220.32001 226.32001 234.24001 237.36">License Agreement (TOU/EULA) defined below. </tspan><tspan
         id="tspan46"
         y="69"
         x="0 7.3200002 13.32 16.68 21.360001 24.360001 29.639999 35.52 39.599998 44.880001 50.16 59.52 64.800003 70.800003 74.160004 77.160004 83.279999 88.559998 92.519997 95.879997 101.16 104.52 110.52 115.2 118.2 121.68 127.68 130.8 136.56 142.56 148.56 151.92 155.28 161.28 166.56 169.56 175.56 180.24001 185.64 189.60001 192.60001 197.88 203.88 209.88 212.88 216.24001 222.24001 227.52">This agreement pertains to you/the user and the </tspan><tspan
         id="tspan48"
         y="82.800003"
         x="0 3.3599999 6.7199998 11.4 16.68 21.959999 27.959999 33.240002 36.599998 42.599998 48.48 51.599998 55.560001 59.040001 64.919998 70.919998 74.279999 78.959999 81.959999 87.239998 93.239998 99.239998 102.6 106.56 111.84 117.84 120.96 129.60001 132.96001 136.32001 142.32001 145.32001 148.67999 154.67999 158.03999 162.72 165.72 171.72 177.72 186.36 192.36 195.72 201.72 207 213 216 218.75999 226.08 232.08 237.36 242.03999 247.32001">liscencing rights aquired with this download. These </tspan><tspan
         id="tspan50"
         y="96.599998"
         x="0 3.96 7.3200002 13.2 19.200001 22.559999 27.24 30.24 35.52 39.599998 44.880001 47.880001 52.560001 58.560001 63.959999 69.239998 72.599998 76.559998 79.919998 85.199997 88.199997 91.559998 97.559998 100.56 104.52 108.6 113.88 119.16 122.28 128.28 134.28 142.92 148.92 152.28 158.28 163.56 169.56 172.56 177.84 183.84 189.84 192.84 198.84 203.52 208.92 214.92 220.2 223.2 229.2 233.16 236.16 239.64 245.64 249 253.67999">rights are specific to free download and usage of this </tspan><tspan
         id="tspan52"
         y="110.4"
         x="0 3.96 9.96 15.96 19.32 22.32 25.32 28.68 31.68 36.959999 39.959999 42.959999 48.240002 51.240002 57.240002 62.52 66.480003 71.160004 77.160004 83.279999 88.559998 91.919998 94.919998 100.92 105.6 110.88 114 121.32 124.68 129.96001 135.24001 141.24001 145.92 151.2 154.2 159.60001 165.60001 169.56 174.84 180.12 189.60001 194.88 200.8788 204.24001 207.24001">font, i.e. a personal use License agreement. </tspan><tspan
         id="tspan54"
         y="124.2"
         x="0 3.96 7.9200001 11.88 15.96 19.92 23.879999 27.84 31.9212 35.881199 39.841202 43.9212 47.881199 51.841202 55.9212 59.881199 63.841202 67.801201 71.881203 75.841202 79.801201 83.881203 87.841202 91.801201 95.881203 99.841202 103.8012 107.7612 111.8412 115.8012 119.8812 123.8412 127.8012 131.7612 135.8412 139.80119 143.7612 147.72121 151.80119 155.7612 159.72121 163.80119 167.7612 171.72121 175.80119 179.7612 183.72121 187.8">----------------------------------------------- </tspan><tspan
         id="tspan56"
         y="138"
         x="0 6.5999999 10.56 15.96 21.24 24.24 30.84 36.84 42.84 46.201199 48.959999 55.561199 60.841202 64.801201 74.161201 78.841202 81.841202 87.841202 91.801201 94.801201 103.4412 108.2412 113.64">Free Font Terms of Use </tspan><tspan
         id="tspan58"
         y="151.8"
         x="0 6.5999999 10.56 15.96 21.24 24.24 30.84 36.84 42.84 46.200001 49.200001 56.52 62.52 68.519997 71.519997 80.160004 84.959999 90.239998 94.199997 97.32 104.52 107.88 113.28 118.68 124.68 129.3588 134.63879 136.91879 145.67999 151.56 155.64 160.92 166.2 175.56 180.84 186.84 190.2 193.67999">Free Font End User License Agreement: </tspan><tspan
         id="tspan60"
         y="165.60001"
         x="0 3.96 7.9200001 11.88 15.96 19.92 23.879999 27.84 31.9212 35.881199 39.841202 43.9212 47.881199 51.841202 55.9212 59.881199 63.841202 67.801201 71.881203 75.841202 79.801201 83.881203 87.841202 91.801201 95.881203 99.841202 103.8012 107.7612 111.8412 115.8012 119.8812 123.8412 127.8012 131.7612 135.8412 139.80119 143.7612 147.72121 151.80119 155.7612 159.72121 163.80119 167.7612 171.72121 175.80119 179.7612 183.72121 187.8">----------------------------------------------- </tspan><tspan
         id="tspan62"
         y="179.39999"
         x="0 6 9 12.96 18 25.32 31.32 34.68 39.360001 42.360001 46.32 52.32 58.32 61.681198 64.681198 68.041199 72.721199 75.721199 79.681198 83.641197 88.921204 94.201202 97.201202 101.1612 107.2812 111.2412 114.2412 120.2412 125.5212 129.4812 134.16119 140.2812 146.2812 151.5612 154.92239 157.92239 163.92239 168.6024 173.8824 176.88">1.) This font is free for personal use. </tspan><tspan
         id="tspan64"
         y="207"
         x="0 6 9 12.96 15.72 23.040001 29.040001 34.32 37.32 43.32 46.68 51.360001 54.720001 58.68 62.040001 68.040001 74.040001 77.400002 80.760002 86.760002 92.760002 95.760002 101.76 105.72 108.72 112.08 118.08 121.44 126.12 129.12 133.08 139.08 145.08 148.44 151.44 155.39999 161.39999 165.36 168.36 172.32001 175.67999 181.67999 186.96001 193.08 198.36 201.72 207 210.36 213.36 219.36 224.64 228 234 237 243.12 247.08">2.) The distribution of this font for financial gain or </tspan><tspan
         id="tspan66"
         y="220.8"
         x="0 6 9.96 15.96 19.92 23.280001 26.639999 29.639999 33 37.68 40.68 46.68 52.68 56.040001 59.040001 65.040001 70.32 74.279999 83.639999 87 90.360001 93.720001 99 105 108 114 120 126 131.28 135.24001 138.24001 143.52 149.75999 155.52 158.52 163.8 167.28 171.24001 176.52 182.52 191.88 196.56 199.92 205.2 211.2 216.60001 221.88 226.56 229.56 234.84 240.96001 246.96001 249.96001 253.32001 258">profit is not permitted under any circumstances and is </tspan><tspan
         id="tspan68"
         y="234.60001"
         x="0 4.6799998 8.04 12 15.36 20.639999 24 27.48 33.240002 36.240002 42.240002 46.200001 52.200001 58.200001 61.560001 67.559998 70.919998 74.279999 79.559998 85.559998 88.559998 91.559998 100.2 106.2 109.2 115.2 121.32 124.68 127.68 132.96001 138.96001 144.96001 147.96001 151.32001 157.32001 160.67999 165.36 168.36 172.32001 178.32001 184.32001 187.67999 190.67999 194.03999 200.03999 203.03999 208.32001 211.32001 215.28 221.28 227.28 230.64 233.64 241.67999 250.32001 253.32001 259.32001 263.28">strictly prohibited. Do not add this font to a font CD or </tspan><tspan
         id="tspan70"
         y="248.39999"
         x="0 5.2800002 11.28 20.639999 26.639999 30 33.360001 38.639999 42 45.360001 51.360001 57.360001 60.360001 65.639999 71.639999 77.639999 80.639999 86.639999 90.599998 93.599998 98.879997 102.96 108.24 114.24 117.6 123.6 128.88 131.88 135.24001 141.24001 146.52 149.88 152.88 156.24001 160.92 163.92 167.28 173.28 176.28 182.28 187.56 190.56 195.24001 201.24001 204.60001 210.60001 213.60001 217.56 223.56 227.52 230.52 235.8 238.92 244.92 248.88 254.88 258.84 262.20001 265.56 268.56">compilation and or archive that is to be sold for a profit. </tspan><tspan
         id="tspan72"
         y="276"
         x="0 7.9200001 13.2 17.879999 21.24 26.639999 31.92 35.279999 38.759998 43.799999 46.799999 49.799999 55.799999 61.799999 67.919998 69.959999 73.32 76.32 81 86.279999 89.639999 93 96 99.360001 105.36 108.72 113.4 116.4 120.36 126.36 132.36 135.72 138.72 141.72 147 153 159 162 168 174 177 183 189 192.36 195.36 204.72 210 216 221.28 224.28 227.64 233.64 237 243 248.88 253.56">Basically, don't sell this font, and do not make things </tspan><tspan
         id="tspan74"
         y="289.79999"
         x="0 3.3599999 9.3599997 14.64 18 21 26.280001 30.24 35.52 38.52 41.880001 47.880001 50.880001 56.880001 62.16 65.160004 69.839996 75.839996 79.199997 85.199997 88.199997 96.839996 100.2 103.56 109.56 112.56 115.92 122.04 125.4 130.08 133.08 137.03999 143.03999 149.03999 152.39999 155.39999 158.39999 161.39999 164.52 168.24001 171.72 173.75999 178.44 181.44 185.39999 189.48 194.75999 200.03999 203.16 207.12 213.12 217.08 220.08 226.08 231.48 235.44 240.12 246.12 252.12 257.39999 260.76001">that are to be sold with this font... It's free for personal </tspan><tspan
         id="tspan76"
         y="303.60001"
         x="0 6 10.68 15.96 18.959999 24.959999 30.959999 34.439999 39.48 42.48 45.48 53.52 59.52 68.879997 78.239998 83.519997 87.480003 92.760002 96.120003 101.4 104.76 107.76 113.76 118.56 123.84 126.84 130.8 136.08 142.08 148.08 151.44 155.52 160.8 165.48 168.48 171.84 177.84 183.12 186.12 192.12 196.8 202.08 206.03999 209.03999 212.39999 218.39999 221.39999 227.39999 233.39999 236.88 242.16 245.52 251.52 254.52 259.79999">use only. Commercial use requires the user to obtain a </tspan><tspan
         id="tspan78"
         y="317.39999"
         x="0 8.04 14.04 23.4 32.759998 38.040001 42 47.279999 50.639999 55.919998 59.279999 62.279999 68.879997 74.879997 80.879997 84.239998 87.239998 94.559998 100.56 106.56 109.56 118.32 123 128.28 132.2388 135.3588 142.4388 145.91879 151.19881 156.47881 162.47881 167.27879 172.55881 175.55881 177.9588 185.8788 188.8788 196.91879 202.91879 212.27879 221.63879 226.91879 230.8788 236.1588 239.63879 244.91879 248.27879 251.27879 257.87881 263.87881 269.87881 273.35999">Commercial Font End User License. A Commercial Font </tspan><tspan
         id="tspan80"
         y="331.20001"
         x="0 7.3200002 13.32 19.32 22.32 30.959999 35.639999 40.919998 44.880001 48 55.200001 58.560001 63.959999 69.239998 75.239998 79.919998 85.199997 88.199997 91.559998 96.2388 99.360001 105.2388 109.2 114.48 120.5988 123.9588 129.2388 135.24001 138.24001 143.52 147.48 150.84 156.12 160.08 163.2 168.48 171.48 178.2 183.72 189.36 196.2 201.48 204.84 207.84 213.84 219.84 225.84 231.12 234.48 237.96001 243.96001 249.96001 252.96001 258.9588 264.2388 268.92001">End User License is granted after a PayPal donation has </tspan><tspan
         id="tspan82"
         y="345"
         x="0 6 11.28 16.559999 22.559999 25.559999 29.52 34.919998 40.200001 45.48 48.84 54.84 60.119999 66.120003 69.120003 72.239998 77.519997 83.519997 89.519997 92.879997 98.160004 103.44 106.8 109.8 119.28 124.56 134.16 139.44 145.44 151.44 154.8 160.2 165.48 168.84 179.88 185.88 191.16 194.52 200.52 203.88 209.88 215.88 221.88 225.24001 228.60001 233.88 239.88 242.88 248.16 254.16 263.51999">been received. contact me contact@galdinootten.com </tspan><tspan
         id="tspan84"
         y="358.79999"
         x="0 3.96 9.96 13.92 16.92 26.280001 32.279999 36.240002 41.52 44.52 50.52 55.799999 59.279999 64.559998 67.919998 71.279999 75.959999 78.959999">for more details. </tspan><tspan
         id="tspan86"
         y="386.39999"
         x="0 6.5999999 12.6 16.559999 19.559999 25.559999 29.52 35.639999 39.599998 42.959999 46.32 49.32 54 59.279999 63.240002 68.519997 74.519997 80.519997 86.519997 92.519997 98.519997 101.88 108 113.88 116.88 122.28 128.28 134.28 137.28 143.28 146.64 152.52 155.88 159.24001 164.52 167.88 170.88 175.56 180.84 184.92 190.2 196.2 202.2 208.2 214.2 220.2 223.56 229.56 235.44 238.56 247.92 253.2 256.56 261.84 265.79999 269.16 274.44 277.79999 280.79999 284.76001 289.44 293.39999 296.39999 302.39999 306.48001">For profit scrapbooking and digital scrapbooking material (s) or </tspan><tspan
         id="tspan88"
         y="400.20001"
         x="0 4.6799998 9.96 13.92 19.200001 25.200001 31.200001 37.200001 43.200001 49.200001 52.560001 58.68 64.559998 67.559998 72.839996 78.839996 84.839996 87.839996 93.839996 97.32 103.2 106.56 109.92 115.2 118.56 121.68 126.36 131.64 135.60001 140.88 146.88 152.88 158.88 164.88 170.88 174.24001 180.36 186.24001 189.24001 198.60001 203.88 207.24001 212.52 216.48 219.96001 225.24001 228.60001 232.56 237.24001 241.2 244.32001 247.67999 253.67999 257.04001 262.32001 268.32001 274.32001 279.60001 285.60001 288.60001 291.95999 297.95999">scrapbooking and digital scrapbooking material(s) intended to </tspan><tspan
         id="tspan90"
         y="414"
         x="0 6 11.28 14.28 18.959999 24.959999 28.32 34.32 37.68 41.639999 46.919998 51.599998 57.599998 60.959999 66.959999 69.959999 78.599998 81.959999 85.32 91.32 94.32 97.68 103.68 107.04 111.72 114.72 118.68 124.68 130.67999 134.03999 137.03999 142.32001 146.28 151.56 154.56 159.84 163.2 167.88 173.88 176.88 182.88 186.84 192.84 198.84 202.2 208.2 211.56 214.92 220.2 226.2 229.2 235.2 241.32001 247.32001 252.60001 256.56 259.56 262.92001 268.92001 272.28 276.95999 279.95999 283.32001 286.67999 291.95999 297.23999 303.23999 307.92001 313.20001 316.20001">be sold/resold with this font are also prohibited under this license, </tspan><tspan
         id="tspan92"
         y="427.79999"
         x="0 5.2800002 11.28 17.280001 20.280001 24.24 29.52 35.52 41.52 44.880001 48.959999 54.240002 57.240002 62.52 65.519997 70.800003 76.800003 86.160004 95.519997 100.92 104.88 110.16 113.52 118.8 122.28 125.3988 132.47881 135.84 141.2388 146.5188 152.51759 157.1976 162.4776 165.4776 168.23759 174.71761 180.71761 183.71761 189.71761 195.71761 199.07761 204.3576 207.71761 213.71761 216.8376 222.1176 225.1176 233.15759 239.15759 248.51759 257.87759 263.15759 267.11761 272.39761 275.7576 281.0376 284.39761">and require a commercial License. To obtain a Commercial </tspan><tspan
         id="tspan94"
         y="441.60001"
         x="0 6.5999999 12.6 18.6 21.959999 24.959999 32.279999 38.279999 44.279999 47.279999 55.919998 60.599998 65.879997 69.839996 72.959999 80.160004 83.639999 88.919998 94.199997 100.2 104.88 110.16 113.28 117.36 123.36 127.32 130.32001 133.67999 139.67999 143.03999 147.72 150.72 154.67999 160.67999 166.67999 170.03999 173.03999 178.32001 184.32001 190.32001 193.67999 198.96001 204.24001 207.60001 210.60001 219.96001 225.24001 234.96001 240.24001 246.24001 252.24001 255.60001 260.88 266.16 269.51999 280.67999 286.56 291.84 295.20001 301.20001 304.56 310.56 316.56 322.56 325.92001 329.28 334.56 340.56 343.56 348.84 354.95999 364.32001">Font End User License for this font contact me contact@galdinootten.com </tspan><tspan
         id="tspan96"
         y="455.39999"
         x="0 6.7199998 10.08 15.36 20.639999 25.32 30.6 33.599998 39.599998 45.599998 48.959999 54.240002 57.240002 60.240002 64.919998 70.199997 74.279999 79.559998 85.559998 91.559998 97.559998 103.56 109.56 112.92 118.92 124.8 127.8 133.08 139.08 145.08 148.08 154.08 157.56 163.44 166.8 170.16 175.44 178.8 181.8 186.48 191.88 195.84 201.12 207.12 213.12 219.12 225.12 231.12 234.48 240.60001 246.48 249.48 255.48 260.16 265.44 268.44 274.56 278.51999 281.51999 284.88 290.88 294.23999 298.92001">Please note, scrapbooking and digital scrapbooking use of this </tspan><tspan
         id="tspan98"
         y="469.20001"
         x="4.8000002 8.7600002 14.76 20.76 24.120001 27.120001 30.48 35.16 38.16 44.16 50.16 53.639999 59.400002 62.400002 66.360001 71.639999 76.32 79.68 83.639999 87.120003 92.400002 95.760002 101.04 107.04 110.04 118.8 124.8 130.08 136.08 139.08 145.08 150.36 154.32001 157.67999 162.96001 166.32001 172.32001 175.67999 181.8 187.67999 190.67999 194.03999 200.03999 203.03999 206.39999 212.39999 217.67999 220.67999 230.03999 235.32001 241.44 244.8 250.8 256.67999 259.67999 265.67999 269.64001 272.64001 277.92001 284.16 289.92001 293.04001 297 303 306.95999">font is only restricted when pertaining to the making of any for </tspan><tspan
         id="tspan100"
         y="483"
         x="0 6 9.96 15.96 19.92 23.280001 26.639999 29.639999 33 36.360001 41.639999 51 55.68 58.68 61.68 70.32 73.68 79.68 84.959999 88.919998 97.559998 100.92 105.6 110.88 113.88 119.28 123.24 128.52 133.8 137.16 140.52 146.64 152.52 155.52 158.88 162.24001 167.52 176.88 181.56 184.56 187.92 193.92 196.92 202.92 208.2 211.2 217.2 221.88 227.16119 233.16 236.28 241.2 247.2 252.47881 256.44 261.12 267.12 273.12 278.3988 281.75879 285.2388 290.27881 293.3988 298.19879">profit items. Otherwise creating items to be used &quot;personally,&quot; </tspan><tspan
         id="tspan102"
         y="496.79999"
         x="0 8.6400003 14.64 19.92 23.280001 29.280001 34.560001 38.52 41.52 44.880001 50.880001 53.880001 59.16 62.16 65.519997 69.599998 74.879997 80.879997 84.239998 87.599998 90.959999 96.959999 102.96 108.24 111.6 114.6 119.28 124.56 128.52 133.8 139.8 145.8 151.8 157.8 163.8 166.8 172.8 176.75999 179.75999 185.75999 189.24001 195.12 198.48 201.84 207.12 210.48 213.48 218.16 223.56 227.52 232.8 238.92 244.92 250.92 256.92001 262.92001 265.92001 269.28 273.95999 276.95999 282.23999 288.23999 291.60001 294.95999 298.92001 304.20001 307.67999 313.44">whether in a traditional scrapbook or digital scrapbook is entirely </tspan></text>
</g></svg>